<?xml version="1.0" encoding="UTF-8" standalone="no"?>
<!DOCTYPE svg PUBLIC "-//W3C//DTD SVG 1.1//EN"
 "http://www.w3.org/Graphics/SVG/1.1/DTD/svg11.dtd">
<!-- Generated by graphviz version 2.43.0 (0)
 -->
<!-- Title: pastafarianism Pages: 1 -->
<svg width="559pt" height="116pt"
 viewBox="0.00 0.00 558.59 116.00" xmlns="http://www.w3.org/2000/svg" xmlns:xlink="http://www.w3.org/1999/xlink">
<g id="graph0" class="graph" transform="scale(1 1) rotate(0) translate(4 112)">
<title>pastafarianism</title>
<polygon fill="white" stroke="transparent" points="-4,4 -4,-112 554.59,-112 554.59,4 -4,4"/>
<!-- Sequence -->
<g id="node1" class="node">
<title>Sequence</title>
<polygon fill="orange" stroke="black" points="318.8,-108 244.8,-108 244.8,-72 318.8,-72 318.8,-108"/>
<text text-anchor="middle" x="281.8" y="-87.8" font-family="Times,serif" font-size="9.00">Ⓜ Sequence</text>
</g>
<!-- plan_path -->
<g id="node2" class="node">
<title>plan_path</title>
<ellipse fill="gray" stroke="black" cx="35.8" cy="-18" rx="35.59" ry="18"/>
<text text-anchor="middle" x="35.8" y="-15.8" font-family="Times,serif" font-size="9.00">plan_path</text>
</g>
<!-- Sequence&#45;&gt;plan_path -->
<g id="edge1" class="edge">
<title>Sequence&#45;&gt;plan_path</title>
<path fill="none" stroke="black" d="M244.79,-80.46C204.21,-70.81 137.34,-54.08 80.8,-36 78.2,-35.17 75.54,-34.28 72.86,-33.35"/>
<polygon fill="black" stroke="black" points="73.84,-29.98 63.24,-29.88 71.47,-36.56 73.84,-29.98"/>
</g>
<!-- follow_path -->
<g id="node3" class="node">
<title>follow_path</title>
<ellipse fill="gray" stroke="black" cx="129.8" cy="-18" rx="39.67" ry="18"/>
<text text-anchor="middle" x="129.8" y="-15.8" font-family="Times,serif" font-size="9.00">follow_path</text>
</g>
<!-- Sequence&#45;&gt;follow_path -->
<g id="edge2" class="edge">
<title>Sequence&#45;&gt;follow_path</title>
<path fill="none" stroke="black" d="M244.61,-71.88C220.67,-60.85 189.69,-46.58 165.95,-35.65"/>
<polygon fill="black" stroke="black" points="167.13,-32.34 156.59,-31.34 164.21,-38.7 167.13,-32.34"/>
</g>
<!-- check_object -->
<g id="node4" class="node">
<title>check_object</title>
<ellipse fill="gray" stroke="black" cx="231.8" cy="-18" rx="44.41" ry="18"/>
<text text-anchor="middle" x="231.8" y="-15.8" font-family="Times,serif" font-size="9.00">check_object</text>
</g>
<!-- Sequence&#45;&gt;check_object -->
<g id="edge3" class="edge">
<title>Sequence&#45;&gt;check_object</title>
<path fill="none" stroke="black" d="M269.44,-71.7C263.48,-63.35 256.21,-53.18 249.66,-44.02"/>
<polygon fill="black" stroke="black" points="252.33,-41.73 243.67,-35.62 246.63,-45.79 252.33,-41.73"/>
</g>
<!-- get_object -->
<g id="node5" class="node">
<title>get_object</title>
<ellipse fill="gray" stroke="black" cx="331.8" cy="-18" rx="37.56" ry="18"/>
<text text-anchor="middle" x="331.8" y="-15.8" font-family="Times,serif" font-size="9.00">get_object</text>
</g>
<!-- Sequence&#45;&gt;get_object -->
<g id="edge4" class="edge">
<title>Sequence&#45;&gt;get_object</title>
<path fill="none" stroke="black" d="M294.16,-71.7C300.27,-63.14 307.74,-52.67 314.42,-43.33"/>
<polygon fill="black" stroke="black" points="317.3,-45.32 320.26,-35.14 311.6,-41.25 317.3,-45.32"/>
</g>
<!-- drop_path -->
<g id="node6" class="node">
<title>drop_path</title>
<ellipse fill="gray" stroke="black" cx="423.8" cy="-18" rx="36.9" ry="18"/>
<text text-anchor="middle" x="423.8" y="-15.8" font-family="Times,serif" font-size="9.00">drop_path</text>
</g>
<!-- Sequence&#45;&gt;drop_path -->
<g id="edge5" class="edge">
<title>Sequence&#45;&gt;drop_path</title>
<path fill="none" stroke="black" d="M316.53,-71.88C338.8,-60.9 367.58,-46.71 389.72,-35.8"/>
<polygon fill="black" stroke="black" points="391.35,-38.9 398.77,-31.34 388.25,-32.62 391.35,-38.9"/>
</g>
<!-- let_object -->
<g id="node7" class="node">
<title>let_object</title>
<ellipse fill="gray" stroke="black" cx="514.8" cy="-18" rx="35.59" ry="18"/>
<text text-anchor="middle" x="514.8" y="-15.8" font-family="Times,serif" font-size="9.00">let_object</text>
</g>
<!-- Sequence&#45;&gt;let_object -->
<g id="edge6" class="edge">
<title>Sequence&#45;&gt;let_object</title>
<path fill="none" stroke="black" d="M318.82,-79.57C356.95,-69.63 417.94,-53.07 469.8,-36 472.38,-35.15 475.04,-34.24 477.71,-33.3"/>
<polygon fill="black" stroke="black" points="479.12,-36.51 487.32,-29.81 476.73,-29.93 479.12,-36.51"/>
</g>
</g>
</svg>
