<?xml version="1.0" encoding="UTF-8" standalone="no"?>
<!DOCTYPE svg PUBLIC "-//W3C//DTD SVG 1.1//EN"
 "http://www.w3.org/Graphics/SVG/1.1/DTD/svg11.dtd">
<!-- Generated by graphviz version 2.43.0 (0)
 -->
<!-- Title: pastafarianism Pages: 1 -->
<svg width="377pt" height="116pt"
 viewBox="0.00 0.00 377.32 116.00" xmlns="http://www.w3.org/2000/svg" xmlns:xlink="http://www.w3.org/1999/xlink">
<g id="graph0" class="graph" transform="scale(1 1) rotate(0) translate(4 112)">
<title>pastafarianism</title>
<polygon fill="white" stroke="transparent" points="-4,4 -4,-112 373.32,-112 373.32,4 -4,4"/>
<!-- Sequence -->
<g id="node1" class="node">
<title>Sequence</title>
<polygon fill="orange" stroke="black" points="217.8,-108 143.8,-108 143.8,-72 217.8,-72 217.8,-108"/>
<text text-anchor="middle" x="180.8" y="-87.8" font-family="Times,serif" font-size="9.00">Ⓜ Sequence</text>
</g>
<!-- plan_path -->
<g id="node2" class="node">
<title>plan_path</title>
<ellipse fill="gray" stroke="black" cx="35.8" cy="-18" rx="35.59" ry="18"/>
<text text-anchor="middle" x="35.8" y="-15.8" font-family="Times,serif" font-size="9.00">plan_path</text>
</g>
<!-- Sequence&#45;&gt;plan_path -->
<g id="edge1" class="edge">
<title>Sequence&#45;&gt;plan_path</title>
<path fill="none" stroke="black" d="M145.32,-71.88C122.44,-60.83 92.82,-46.53 70.15,-35.59"/>
<polygon fill="black" stroke="black" points="71.43,-32.32 60.9,-31.12 68.39,-38.62 71.43,-32.32"/>
</g>
<!-- follow_path -->
<g id="node3" class="node">
<title>follow_path</title>
<ellipse fill="gray" stroke="black" cx="129.8" cy="-18" rx="39.67" ry="18"/>
<text text-anchor="middle" x="129.8" y="-15.8" font-family="Times,serif" font-size="9.00">follow_path</text>
</g>
<!-- Sequence&#45;&gt;follow_path -->
<g id="edge2" class="edge">
<title>Sequence&#45;&gt;follow_path</title>
<path fill="none" stroke="black" d="M168.19,-71.7C162.05,-63.27 154.55,-52.97 147.81,-43.73"/>
<polygon fill="black" stroke="black" points="150.62,-41.64 141.91,-35.62 144.97,-45.77 150.62,-41.64"/>
</g>
<!-- check_object -->
<g id="node4" class="node">
<title>check_object</title>
<ellipse fill="gray" stroke="black" cx="231.8" cy="-18" rx="44.41" ry="18"/>
<text text-anchor="middle" x="231.8" y="-15.8" font-family="Times,serif" font-size="9.00">check_object</text>
</g>
<!-- Sequence&#45;&gt;check_object -->
<g id="edge3" class="edge">
<title>Sequence&#45;&gt;check_object</title>
<path fill="none" stroke="black" d="M193.4,-71.7C199.55,-63.27 207.04,-52.97 213.78,-43.73"/>
<polygon fill="black" stroke="black" points="216.63,-45.77 219.69,-35.62 210.97,-41.64 216.63,-45.77"/>
</g>
<!-- get_object -->
<g id="node5" class="node">
<title>get_object</title>
<ellipse fill="gray" stroke="black" cx="331.8" cy="-18" rx="37.56" ry="18"/>
<text text-anchor="middle" x="331.8" y="-15.8" font-family="Times,serif" font-size="9.00">get_object</text>
</g>
<!-- Sequence&#45;&gt;get_object -->
<g id="edge4" class="edge">
<title>Sequence&#45;&gt;get_object</title>
<path fill="none" stroke="black" d="M217.73,-71.88C241.68,-60.78 272.69,-46.4 296.33,-35.44"/>
<polygon fill="black" stroke="black" points="298.05,-38.5 305.65,-31.12 295.11,-32.15 298.05,-38.5"/>
</g>
</g>
</svg>
